# xmcd CD database file
#
# Track frame offsets:
#	150
#	30197
#	58065
#	80045
#	99035
#	111865
#	130892
#	150855
#	171437
#
# Disc length: 2535 seconds
#
# Revision: 0
# Processed by: cddbd v1.4PL0 Copyright (c) Steve Scherf et al.
# Submitted via: CDex 1.50beta10
#
DISCID=6309e509
DTITLE=Lasse Danielsson - Tia´ Dia´
DYEAR=1987
DGENRE=Jazz
TTITLE0=Old Italian Woman
TTITLE1=Henrik
TTITLE2=Quiet
TTITLE3=Tia´ Dia´
TTITLE4=The First Day
TTITLE5=Slow Down
TTITLE6=Get Me Home
TTITLE7=Henrik Again
TTITLE8=To B
EXTD=YEAR: 1987
EXTT0=
EXTT1=
EXTT2=
EXTT3=
EXTT4=
EXTT5=
EXTT6=
EXTT7=
EXTT8=
PLAYORDER=
